<?xml version="1.0" encoding="UTF-8"?>
<svg xmlns="http://www.w3.org/2000/svg" xmlns:xlink="http://www.w3.org/1999/xlink" width="0" height="0">
<symbol id="fb" width="16" height="16" viewBox="0 0 16 16" fill="currentColor"><path d="M9.33333 9.10008H11.2381L12 6.16675H9.33333V4.70008C9.33333 3.94475 9.33333 3.23341 10.8571 3.23341H12V0.769415C11.7516 0.737881 10.8137 0.666748 9.82324 0.666748C7.75467 0.666748 6.28571 1.88188 6.28571 4.11341V6.16675H4V9.10008H6.28571V15.3334H9.33333V9.10008Z"/></symbol><symbol id="ig" width="16" height="16" viewBox="0 0 16 16" fill="currentColor"><path d="M11.0558 1.88886C11.8655 1.89128 12.6413 2.214 13.2138 2.78655C13.7864 3.3591 14.1092 4.13495 14.1116 4.94464V11.0556C14.1092 11.8653 13.7864 12.6411 13.2138 13.2137C12.6413 13.7862 11.8655 14.1089 11.0558 14.1113H4.94488C4.13519 14.1089 3.35934 13.7862 2.78679 13.2137C2.21425 12.6411 1.89153 11.8653 1.88911 11.0556V4.94464C1.89153 4.13495 2.21425 3.3591 2.78679 2.78655C3.35934 2.214 4.13519 1.89128 4.94488 1.88886H11.0558ZM11.0558 0.666748H4.94488C2.59199 0.666748 0.666992 2.59175 0.666992 4.94464V11.0556C0.666992 13.4084 2.59199 15.3334 4.94488 15.3334H11.0558C13.4087 15.3334 15.3337 13.4084 15.3337 11.0556V4.94464C15.3337 2.59175 13.4087 0.666748 11.0558 0.666748Z"/><path d="M11.9721 4.94489C11.7908 4.94489 11.6136 4.89112 11.4628 4.7904C11.3122 4.68967 11.1947 4.54651 11.1253 4.37901C11.0559 4.21151 11.0377 4.0272 11.0731 3.84938C11.1085 3.67156 11.1958 3.50823 11.324 3.38003C11.4522 3.25184 11.6155 3.16453 11.7933 3.12916C11.9712 3.09379 12.1555 3.11194 12.3229 3.18133C12.4904 3.2507 12.6336 3.36819 12.7344 3.51894C12.8351 3.66968 12.8888 3.84691 12.8888 4.02822C12.8891 4.14866 12.8656 4.26798 12.8195 4.37931C12.7736 4.49064 12.7061 4.5918 12.6209 4.67697C12.5358 4.76214 12.4346 4.82966 12.3232 4.87563C12.2119 4.92161 12.0926 4.94514 11.9721 4.94489ZM8.00004 5.55578C8.48354 5.55578 8.95618 5.69915 9.35816 5.96776C9.76015 6.23637 10.0735 6.61816 10.2585 7.06485C10.4436 7.51153 10.4919 8.00305 10.3976 8.47724C10.3033 8.95147 10.0705 9.387 9.72858 9.72893C9.38669 10.0708 8.95116 10.3036 8.47692 10.3979C8.00274 10.4923 7.51123 10.4438 7.06455 10.2589C6.61786 10.0738 6.23607 9.76045 5.96746 9.35849C5.69885 8.95645 5.55548 8.48382 5.55548 8.00034C5.55617 7.35221 5.81395 6.73083 6.27224 6.27254C6.73053 5.81424 7.35191 5.55647 8.00004 5.55578ZM8.00004 4.33366C7.27483 4.33366 6.56592 4.54871 5.96294 4.95161C5.35996 5.35451 4.89 5.92716 4.61247 6.59716C4.33495 7.26716 4.26234 8.00441 4.40382 8.7157C4.5453 9.42697 4.89452 10.0803 5.40731 10.593C5.9201 11.1058 6.57344 11.4551 7.28471 11.5966C7.99597 11.738 8.73325 11.6654 9.40319 11.3879C10.0732 11.1104 10.6459 10.6404 11.0488 10.0375C11.4517 9.43447 11.6667 8.72557 11.6667 8.00034C11.6667 7.02788 11.2804 6.09524 10.5928 5.4076C9.90512 4.71997 8.97253 4.33366 8.00004 4.33366Z"/></symbol><symbol id="tw" width="16" height="16" viewBox="0 0 16 16" fill="currentColor"><path d="M15.3337 3.42188C14.7835 3.66636 14.2014 3.82744 13.6057 3.9C14.2317 3.52512 14.7025 2.92956 14.9297 2.22501C14.3379 2.57894 13.6914 2.82728 13.0181 2.95938C12.7346 2.65548 12.3936 2.41372 12.0159 2.2488C11.6382 2.08388 11.2316 1.99923 10.8209 2.00001C9.15803 2.00001 7.81241 3.35625 7.81241 5.02813C7.81121 5.26068 7.83726 5.49254 7.89001 5.71876C6.69764 5.66159 5.53006 5.3505 4.46198 4.8054C3.3939 4.26029 2.44883 3.49318 1.68724 2.55313C1.42005 3.01379 1.27875 3.5394 1.2781 4.07501C1.2781 5.125 1.81374 6.05313 2.62255 6.59688C2.14335 6.58525 1.67398 6.45553 1.25427 6.21875V6.25625C1.25427 7.725 2.29316 8.94688 3.66816 9.225C3.40959 9.29548 3.14314 9.3312 2.87555 9.33128C2.68567 9.33157 2.49622 9.31276 2.30996 9.27501C2.69221 10.4781 3.80474 11.3531 5.1226 11.3781C4.05174 12.2221 2.73701 12.6784 1.38505 12.675C1.14507 12.6747 0.905315 12.66 0.666992 12.6312C2.04235 13.5294 3.64109 14.0045 5.27293 14C10.8145 14 13.8419 9.38435 13.8419 5.38125C13.8419 5.25001 13.8385 5.11875 13.8324 4.99063C14.4201 4.56315 14.9284 4.03192 15.3337 3.42188Z"/></symbol><symbol id="calendar" width="16" height="16" viewBox="0 0 16 16" fill="currentColor"><path d="M10.4167 9C10.5714 9 10.7197 8.94732 10.8291 8.85355C10.9385 8.75979 11 8.63261 11 8.5C11 8.36739 10.9385 8.24021 10.8291 8.14645C10.7197 8.05268 10.5714 8 10.4167 8C10.262 8 10.1136 8.05268 10.0042 8.14645C9.89479 8.24021 9.83333 8.36739 9.83333 8.5C9.83333 8.63261 9.89479 8.75979 10.0042 8.85355C10.1136 8.94732 10.262 9 10.4167 9ZM10.4167 11C10.5714 11 10.7197 10.9473 10.8291 10.8536C10.9385 10.7598 11 10.6326 11 10.5C11 10.3674 10.9385 10.2402 10.8291 10.1464C10.7197 10.0527 10.5714 10 10.4167 10C10.262 10 10.1136 10.0527 10.0042 10.1464C9.89479 10.2402 9.83333 10.3674 9.83333 10.5C9.83333 10.6326 9.89479 10.7598 10.0042 10.8536C10.1136 10.9473 10.262 11 10.4167 11ZM8.08333 8.5C8.08333 8.63261 8.02187 8.75979 7.91248 8.85355C7.80308 8.94732 7.65471 9 7.5 9C7.34529 9 7.19692 8.94732 7.08752 8.85355C6.97812 8.75979 6.91667 8.63261 6.91667 8.5C6.91667 8.36739 6.97812 8.24021 7.08752 8.14645C7.19692 8.05268 7.34529 8 7.5 8C7.65471 8 7.80308 8.05268 7.91248 8.14645C8.02187 8.24021 8.08333 8.36739 8.08333 8.5ZM8.08333 10.5C8.08333 10.6326 8.02187 10.7598 7.91248 10.8536C7.80308 10.9473 7.65471 11 7.5 11C7.34529 11 7.19692 10.9473 7.08752 10.8536C6.97812 10.7598 6.91667 10.6326 6.91667 10.5C6.91667 10.3674 6.97812 10.2402 7.08752 10.1464C7.19692 10.0527 7.34529 10 7.5 10C7.65471 10 7.80308 10.0527 7.91248 10.1464C8.02187 10.2402 8.08333 10.3674 8.08333 10.5ZM4.58333 9C4.73804 9 4.88642 8.94732 4.99581 8.85355C5.10521 8.75979 5.16667 8.63261 5.16667 8.5C5.16667 8.36739 5.10521 8.24021 4.99581 8.14645C4.88642 8.05268 4.73804 8 4.58333 8C4.42862 8 4.28025 8.05268 4.17085 8.14645C4.06146 8.24021 4 8.36739 4 8.5C4 8.63261 4.06146 8.75979 4.17085 8.85355C4.28025 8.94732 4.42862 9 4.58333 9ZM4.58333 11C4.73804 11 4.88642 10.9473 4.99581 10.8536C5.10521 10.7598 5.16667 10.6326 5.16667 10.5C5.16667 10.3674 5.10521 10.2402 4.99581 10.1464C4.88642 10.0527 4.73804 10 4.58333 10C4.42862 10 4.28025 10.0527 4.17085 10.1464C4.06146 10.2402 4 10.3674 4 10.5C4 10.6326 4.06146 10.7598 4.17085 10.8536C4.28025 10.9473 4.42862 11 4.58333 11Z"/><path fill-rule="evenodd" clip-rule="evenodd" d="M5.2093 2C5.32032 2 5.4268 2.04515 5.5053 2.12553C5.5838 2.2059 5.62791 2.31491 5.62791 2.42857V2.86457C5.9974 2.85714 6.40428 2.85714 6.85191 2.85714H9.14754C9.59572 2.85714 10.0026 2.85714 10.3721 2.86457V2.42857C10.3721 2.31491 10.4162 2.2059 10.4947 2.12553C10.5732 2.04515 10.6797 2 10.7907 2C10.9017 2 11.0082 2.04515 11.0867 2.12553C11.1652 2.2059 11.2093 2.31491 11.2093 2.42857V2.90114C11.3544 2.91257 11.4917 2.92686 11.6218 2.94457C12.2759 3.03486 12.8056 3.22457 13.2236 3.652C13.6411 4.08 13.8264 4.62229 13.9146 5.292C14 5.94343 14 6.77486 14 7.82514V9.032C14 10.0823 14 10.9143 13.9146 11.5651C13.8264 12.2349 13.6411 12.7771 13.2236 13.2051C12.8056 13.6326 12.2759 13.8223 11.6218 13.9126C10.9855 14 10.1734 14 9.14754 14H6.85247C5.8266 14 5.01395 14 4.37823 13.9126C3.72409 13.8223 3.19442 13.6326 2.77637 13.2051C2.35888 12.7771 2.17358 12.2349 2.0854 11.5651C2 10.9137 2 10.0823 2 9.032V7.82514C2 6.77486 2 5.94286 2.0854 5.292C2.17358 4.62229 2.35888 4.08 2.77637 3.652C3.19442 3.22457 3.72409 3.03486 4.37823 2.94457C4.50828 2.92686 4.64614 2.91257 4.7907 2.90114V2.42857C4.7907 2.31491 4.8348 2.2059 4.9133 2.12553C4.99181 2.04515 5.09828 2 5.2093 2ZM4.4893 3.79429C3.92837 3.87143 3.60465 4.01657 3.36856 4.25829C3.13247 4.5 2.9907 4.83143 2.91535 5.40629C2.90251 5.50343 2.89191 5.60629 2.88298 5.71429H13.117C13.1081 5.60571 13.0975 5.50343 13.0847 5.40571C13.0093 4.83143 12.8675 4.5 12.6314 4.25829C12.3953 4.01657 12.0716 3.87143 11.5101 3.79429C10.9369 3.71543 10.1807 3.71429 9.11628 3.71429H6.88372C5.81935 3.71429 5.06363 3.71543 4.4893 3.79429ZM2.83721 7.85714C2.83721 7.36914 2.83721 6.94457 2.84447 6.57143H13.1555C13.1628 6.94457 13.1628 7.36914 13.1628 7.85714V9C13.1628 10.0897 13.1617 10.864 13.0847 11.4514C13.0093 12.0257 12.8675 12.3571 12.6314 12.5989C12.3953 12.8406 12.0716 12.9857 11.5101 13.0629C10.9369 13.1417 10.1807 13.1429 9.11628 13.1429H6.88372C5.81935 13.1429 5.06363 13.1417 4.4893 13.0629C3.92837 12.9857 3.60465 12.8406 3.36856 12.5989C3.13247 12.3571 2.9907 12.0257 2.91535 11.4509C2.83833 10.864 2.83721 10.0897 2.83721 9V7.85714Z"/></symbol><symbol id="cart" width="16" height="16" viewBox="0 0 16 16" fill="currentColor"><path d="M0.999023 1.59916C0.999023 1.44001 1.06225 1.28738 1.17478 1.17484C1.28732 1.06231 1.43995 0.999084 1.5991 0.999084H2.04556C2.80566 0.999084 3.26172 1.51035 3.52175 1.98561C3.69538 2.30245 3.82099 2.6697 3.91941 3.00255C3.94602 3.00045 3.97271 2.99938 3.99942 2.99935H13.9991C14.6632 2.99935 15.1433 3.63463 14.9608 4.27391L13.4983 9.40178C13.3671 9.86173 13.0897 10.2664 12.708 10.5546C12.3263 10.8427 11.8611 10.9987 11.3828 10.9988H6.62376C6.14169 10.9988 5.67296 10.8405 5.2896 10.5482C4.90625 10.2559 4.6295 9.84585 4.50188 9.38098L3.8938 7.16309L2.88567 3.76425L2.88487 3.75785C2.76005 3.30419 2.64324 2.87933 2.46882 2.56249C2.30159 2.25445 2.16718 2.19924 2.04636 2.19924H1.5991C1.43995 2.19924 1.28732 2.13602 1.17478 2.02348C1.06225 1.91095 0.999023 1.75831 0.999023 1.59916ZM5.05795 6.87185L5.65883 9.06334C5.77885 9.497 6.1733 9.79864 6.62376 9.79864H11.3828C11.6002 9.79863 11.8116 9.7278 11.9852 9.59685C12.1587 9.46591 12.2849 9.28199 12.3445 9.07294L13.7343 4.1995H4.26745L5.04675 6.82945L5.05795 6.87185Z"/><path d="M7.80003 13.4007C7.80003 13.8251 7.63143 14.2322 7.33134 14.5323C7.03124 14.8324 6.62422 15.001 6.19982 15.001C5.77542 15.001 5.3684 14.8324 5.0683 14.5323C4.7682 14.2322 4.59961 13.8251 4.59961 13.4007C4.59961 12.9763 4.7682 12.5693 5.0683 12.2692C5.3684 11.9691 5.77542 11.8005 6.19982 11.8005C6.62422 11.8005 7.03124 11.9691 7.33134 12.2692C7.63143 12.5693 7.80003 12.9763 7.80003 13.4007ZM6.59987 13.4007C6.59987 13.2946 6.55772 13.1929 6.4827 13.1179C6.40767 13.0428 6.30592 13.0007 6.19982 13.0007C6.09372 13.0007 5.99196 13.0428 5.91694 13.1179C5.84191 13.1929 5.79977 13.2946 5.79977 13.4007C5.79977 13.5068 5.84191 13.6086 5.91694 13.6836C5.99196 13.7587 6.09372 13.8008 6.19982 13.8008C6.30592 13.8008 6.40767 13.7587 6.4827 13.6836C6.55772 13.6086 6.59987 13.5068 6.59987 13.4007Z"/><path d="M13.4006 13.4007C13.4006 13.8251 13.232 14.2322 12.9319 14.5323C12.6318 14.8324 12.2248 15.001 11.8004 15.001C11.376 15.001 10.969 14.8324 10.6689 14.5323C10.3688 14.2322 10.2002 13.8251 10.2002 13.4007C10.2002 12.9763 10.3688 12.5693 10.6689 12.2692C10.969 11.9691 11.376 11.8005 11.8004 11.8005C12.2248 11.8005 12.6318 11.9691 12.9319 12.2692C13.232 12.5693 13.4006 12.9763 13.4006 13.4007ZM12.2005 13.4007C12.2005 13.2946 12.1583 13.1929 12.0833 13.1179C12.0083 13.0428 11.9065 13.0007 11.8004 13.0007C11.6943 13.0007 11.5925 13.0428 11.5175 13.1179C11.4425 13.1929 11.4004 13.2946 11.4004 13.4007C11.4004 13.5068 11.4425 13.6086 11.5175 13.6836C11.5925 13.7587 11.6943 13.8008 11.8004 13.8008C11.9065 13.8008 12.0083 13.7587 12.0833 13.6836C12.1583 13.6086 12.2005 13.5068 12.2005 13.4007Z"/></symbol><symbol id="check" viewBox="0 0 16 16" fill="currentColor"><path d="M13.485 3.757a.75.75 0 0 1 0 1.06l-7 7a.75.75 0 0 1-1.06 0l-3-3a.75.75 0 0 1 1.06-1.06l2.47 2.47 6.47-6.47a.75.75 0 0 1 1.06 0z"/></symbol><symbol id="envelope" width="16" height="16" viewBox="0 0 16 16" fill="currentColor"><path d="M12.9 2H3.1C2.54305 2 2.0089 2.23705 1.61508 2.65901C1.22125 3.08097 1 3.65326 1 4.25V11.75C1 12.3467 1.22125 12.919 1.61508 13.341C2.0089 13.7629 2.54305 14 3.1 14H12.9C13.457 14 13.9911 13.7629 14.3849 13.341C14.7788 12.919 15 12.3467 15 11.75V4.25C15 3.65326 14.7788 3.08097 14.3849 2.65901C13.9911 2.23705 13.457 2 12.9 2ZM3.1 3.5H12.9C13.0857 3.5 13.2637 3.57902 13.395 3.71967C13.5263 3.86032 13.6 4.05109 13.6 4.25L8 7.91L2.4 4.25C2.4 4.05109 2.47375 3.86032 2.60503 3.71967C2.7363 3.57902 2.91435 3.5 3.1 3.5ZM13.6 11.75C13.6 11.9489 13.5263 12.1397 13.395 12.2803C13.2637 12.421 13.0857 12.5 12.9 12.5H3.1C2.91435 12.5 2.7363 12.421 2.60503 12.2803C2.47375 12.1397 2.4 11.9489 2.4 11.75V5.96L7.636 9.3875C7.74241 9.45333 7.86312 9.48798 7.986 9.48798C8.10888 9.48798 8.22959 9.45333 8.336 9.3875L13.6 5.96V11.75Z"/></symbol><symbol id="heart-active"          width="16"          height="16"          viewBox="0 0 16 16"          fill="currentColor"                 ><path            d="M13.7141 3.30182C12.9713 2.55413 11.9865 2.09955 10.9387 2.02074C9.89102 1.94192 8.84997 2.24411 8.00494 2.87236C7.11474 2.20608 6.00672 1.90396 4.90401 2.02683C3.80131 2.1497 2.78582 2.68844 2.06205 3.53456C1.33828 4.38068 0.959991 5.47133 1.00336 6.58688C1.04672 7.70243 1.50852 8.76001 2.29576 9.54665L7.50818 14.7917C7.57323 14.8577 7.65061 14.9101 7.73587 14.9459C7.82113 14.9816 7.91257 15 8.00494 15C8.0973 15 8.18875 14.9816 8.27401 14.9459C8.35927 14.9101 8.43665 14.8577 8.50169 14.7917L13.7141 9.54665C14.1218 9.13671 14.4452 8.64995 14.6658 8.11419C14.8864 7.57843 15 7.00418 15 6.42424C15 5.8443 14.8864 5.27004 14.6658 4.73428C14.4452 4.19852 14.1218 3.71177 13.7141 3.30182Z"                     /></symbol><symbol id="heart" width="16" height="16" viewBox="0 0 16 16" fill="currentColor"><path d="M13.7141 3.30182C12.9713 2.55413 11.9865 2.09955 10.9387 2.02074C9.89102 1.94192 8.84997 2.24411 8.00494 2.87236C7.11474 2.20608 6.00672 1.90396 4.90401 2.02683C3.80131 2.1497 2.78582 2.68844 2.06205 3.53456C1.33828 4.38068 0.959991 5.47133 1.00336 6.58688C1.04672 7.70243 1.50852 8.76001 2.29576 9.54665L7.50818 14.7917C7.57323 14.8577 7.65061 14.9101 7.73587 14.9459C7.82113 14.9816 7.91257 15 8.00494 15C8.0973 15 8.18875 14.9816 8.27401 14.9459C8.35927 14.9101 8.43665 14.8577 8.50169 14.7917L13.7141 9.54665C14.1218 9.13671 14.4452 8.64995 14.6658 8.11419C14.8864 7.57843 15 7.00418 15 6.42424C15 5.8443 14.8864 5.27004 14.6658 4.73428C14.4452 4.19852 14.1218 3.71177 13.7141 3.30182ZM12.7276 8.55396L8.00494 13.2992L3.28227 8.55396C2.8661 8.13343 2.5826 7.59861 2.46733 7.01657C2.35207 6.43454 2.41017 5.83121 2.63436 5.28228C2.85854 4.73335 3.23882 4.26325 3.72749 3.93097C4.21616 3.59868 4.79147 3.419 5.38123 3.41447C6.16912 3.41641 6.92404 3.73293 7.4802 4.29452C7.54524 4.3605 7.62262 4.41288 7.70788 4.44862C7.79314 4.48437 7.88459 4.50277 7.97695 4.50277C8.06931 4.50277 8.16076 4.48437 8.24602 4.44862C8.33128 4.41288 8.40866 4.3605 8.47371 4.29452C9.04625 3.79527 9.7859 3.53355 10.543 3.56233C11.3 3.59111 12.0179 3.90824 12.5514 4.44954C13.0849 4.99083 13.3941 5.71586 13.4164 6.47788C13.4387 7.23989 13.1725 7.98199 12.6716 8.55396H12.7276Z"/></symbol><symbol id="pen" width="16" height="16" viewBox="0 0 16 16" fill="currentColor"><g clip-path="url(#clip0_1580_4816)"><path d="M12.1234 2.59627L12.2351 2.48452C12.3192 2.40046 12.4191 2.33379 12.5289 2.28831C12.6388 2.24284 12.7566 2.21945 12.8755 2.21948C12.9944 2.21952 13.1122 2.24297 13.222 2.28851C13.3319 2.33405 13.4317 2.40078 13.5157 2.4849C13.5998 2.56901 13.6665 2.66885 13.7119 2.77873C13.7574 2.88861 13.7808 3.00637 13.7808 3.12529C13.7807 3.2442 13.7573 3.36195 13.7117 3.4718C13.6662 3.58165 13.5995 3.68146 13.5154 3.76552L13.4036 3.87652C13.5948 4.09092 13.6967 4.37032 13.6885 4.65744C13.6802 4.94457 13.5625 5.21767 13.3594 5.42077L5.64036 13.1405C5.59211 13.1885 5.5317 13.2225 5.46561 13.2388L2.46561 13.9888C2.40283 14.0044 2.33707 14.0035 2.27473 13.9862C2.21239 13.9689 2.15558 13.9358 2.10983 13.89C2.06409 13.8443 2.03095 13.7875 2.01365 13.7252C1.99635 13.6628 1.99548 13.5971 2.01111 13.5343L2.76111 10.5343C2.77752 10.4685 2.81148 10.4083 2.85936 10.3603L10.0909 3.12877C10.0185 3.07787 9.93055 3.05417 9.84244 3.06185C9.75434 3.06954 9.67178 3.10812 9.60936 3.17077L7.14036 5.64052C7.1055 5.67539 7.0641 5.70304 7.01855 5.72191C6.97299 5.74078 6.92417 5.7505 6.87486 5.7505C6.82555 5.7505 6.77673 5.74078 6.73117 5.72191C6.68562 5.70304 6.64423 5.67539 6.60936 5.64052C6.5745 5.60566 6.54684 5.56426 6.52797 5.51871C6.5091 5.47315 6.49939 5.42433 6.49939 5.37502C6.49939 5.32571 6.5091 5.27689 6.52797 5.23133C6.54684 5.18578 6.5745 5.14439 6.60936 5.10952L9.07986 2.64052C9.28309 2.43728 9.5564 2.31954 9.84371 2.31145C10.131 2.30336 10.4105 2.40554 10.6249 2.59702C10.8309 2.41285 11.0976 2.31098 11.374 2.31084C11.6503 2.3107 11.9171 2.41231 12.1234 2.59627ZM11.6404 3.17077C11.57 3.10047 11.4747 3.06098 11.3752 3.06098C11.2758 3.06098 11.1804 3.10047 11.1101 3.17077L3.46236 10.817L2.88936 13.1098L5.18211 12.5368L12.8299 4.89052C12.8648 4.85569 12.8925 4.81431 12.9114 4.76875C12.9303 4.72319 12.94 4.67435 12.94 4.62502C12.94 4.5757 12.9303 4.52685 12.9114 4.4813C12.8925 4.43574 12.8648 4.39436 12.8299 4.35952L11.6404 3.17077Z"/></g><defs><clipPath><rect width="12" height="12" transform="translate(2 2)"/></clipPath></defs></symbol><symbol id="phone-call" width="16" height="16" viewBox="0 0 16 16" fill="currentColor"><path d="M11.1967 15H11.2164C11.586 15 11.9353 14.8544 12.1999 14.5898L14.0984 12.6913C14.1634 12.6263 14.215 12.5492 14.2503 12.4643C14.2855 12.3793 14.3036 12.2883 14.3036 12.1964C14.3036 12.1044 14.2855 12.0134 14.2503 11.9285C14.215 11.8435 14.1634 11.7664 14.0984 11.7014L11.2983 8.90129C11.2333 8.83623 11.1562 8.78461 11.0712 8.74939C10.9863 8.71417 10.8953 8.69604 10.8033 8.69604C10.7114 8.69604 10.6204 8.71417 10.5354 8.74939C10.4505 8.78461 10.3734 8.83623 10.3084 8.90129L9.19257 10.0171C8.67525 9.86314 7.70991 9.51313 7.09809 8.90129C6.48627 8.28946 6.13625 7.32412 5.98225 6.80679L7.09809 5.69093C7.16315 5.62598 7.21477 5.54883 7.24999 5.46391C7.28521 5.37898 7.30334 5.28795 7.30334 5.19601C7.30334 5.10407 7.28521 5.01304 7.24999 4.92811C7.21477 4.84319 7.16315 4.76604 7.09809 4.70109L4.29798 1.90094C4.16415 1.77463 3.98709 1.70426 3.80306 1.70426C3.61903 1.70426 3.44197 1.77463 3.30814 1.90094L1.41037 3.79944C1.14436 4.06545 0.994551 4.43087 1.00015 4.80399C1.01625 5.80084 1.28016 9.26321 4.00887 11.9919C6.73758 14.7207 10.1999 14.9839 11.1967 15ZM3.80376 3.38572L5.61403 5.19601L4.7089 6.10115C4.62653 6.1833 4.56602 6.28474 4.53288 6.39625C4.49975 6.50776 4.49504 6.62579 4.51919 6.73959C4.53599 6.82009 4.94691 8.72909 6.10895 9.89114C7.271 11.0532 9.17997 11.4641 9.26047 11.4809C9.37426 11.5052 9.49233 11.5006 9.60386 11.4674C9.71539 11.4343 9.81683 11.3737 9.8989 11.2912L10.804 10.3861L12.6143 12.1964L11.21 13.5999C10.3364 13.5852 7.3473 13.3507 4.99871 11.0014C2.64242 8.64508 2.41421 5.64543 2.40021 4.78929L3.80376 3.38572ZM13.5999 7.29961H15C15 3.70844 12.2888 1 8.69275 1V2.40007C11.5363 2.40007 13.5999 4.46027 13.5999 7.29961Z"/><path d="M9.5 4.12187V3.52039C10.4424 3.60006 11.1376 3.90971 11.6139 4.38605C12.0903 4.8624 12.3999 5.55761 12.4796 6.5H11.8781C11.8151 5.8192 11.6097 5.24081 11.1845 4.81555C10.7592 4.39029 10.1808 4.18491 9.5 4.12187Z"/></symbol><symbol id="search" width="24" height="24" viewBox="0 0 24 24" fill="currentColor"><path d="M21.7192 20.3139L18.0114 16.6333C19.4506 14.8374 20.1476 12.5579 19.959 10.2636C19.7705 7.96919 18.7106 5.83432 16.9975 4.29792C15.2844 2.76153 13.0481 1.9404 10.7486 2.00337C8.44911 2.06634 6.26109 3.00863 4.63448 4.63648C3.00786 6.26433 2.06629 8.454 2.00337 10.7553C1.94045 13.0565 2.76095 15.2945 4.29618 17.0089C5.83141 18.7233 7.96466 19.784 10.2573 19.9727C12.5499 20.1614 14.8277 19.4639 16.6222 18.0235L20.3 21.7042C20.3929 21.7979 20.5035 21.8723 20.6253 21.9231C20.747 21.9739 20.8777 22 21.0096 22C21.1415 22 21.2722 21.9739 21.3939 21.9231C21.5157 21.8723 21.6263 21.7979 21.7192 21.7042C21.8993 21.5177 22 21.2684 22 21.009C22 20.7497 21.8993 20.5004 21.7192 20.3139ZM11.0155 18.0235C9.63189 18.0235 8.27932 17.6129 7.12886 16.8436C5.9784 16.0743 5.08172 14.9809 4.55223 13.7016C4.02273 12.4223 3.88419 11.0146 4.15412 9.65653C4.42406 8.29844 5.09035 7.05095 6.06873 6.07183C7.04712 5.0927 8.29366 4.4259 9.65072 4.15576C11.0078 3.88562 12.4144 4.02426 13.6927 4.55417C14.9711 5.08407 16.0637 5.98142 16.8324 7.13276C17.6011 8.28409 18.0114 9.63769 18.0114 11.0224C18.0114 12.8792 17.2743 14.66 15.9623 15.973C14.6504 17.2859 12.871 18.0235 11.0155 18.0235Z"/></symbol><symbol id="star-active" width="16" height="16" viewBox="0 0 16 16" fill="currentColor"><g clip-path="url(#clip0_1591_5677)"><path d="M7.09749 1.89137C7.45972 1.13224 8.54028 1.13224 8.90251 1.89137L10.0704 4.33882C10.2162 4.64433 10.5066 4.85534 10.8422 4.89958L13.5308 5.25399C14.3647 5.36391 14.6986 6.39158 14.0885 6.97067L12.1218 8.83768C11.8763 9.07073 11.7653 9.41217 11.827 9.74502L12.3207 12.4115C12.4739 13.2386 11.5997 13.8737 10.8604 13.4725L8.47702 12.1789C8.1795 12.0174 7.8205 12.0174 7.52298 12.1789L5.13959 13.4725C4.40033 13.8737 3.52614 13.2386 3.67929 12.4115L4.17304 9.74502C4.23467 9.41217 4.12373 9.07073 3.87823 8.83768L1.91145 6.97067C1.30142 6.39158 1.63533 5.36391 2.46924 5.25399L5.15779 4.89958C5.4934 4.85534 5.78384 4.64433 5.92962 4.33882L7.09749 1.89137Z"/></g><defs><clipPath><rect width="16" height="16"/></clipPath></defs></symbol><symbol id="star" width="16" height="16" viewBox="0 0 16 16" fill="currentColor"><g clip-path="url(#clip0_1591_5672)"><path d="M7.09749 1.89137C7.45972 1.13224 8.54028 1.13224 8.90251 1.89137L10.0704 4.33882C10.2162 4.64433 10.5066 4.85534 10.8422 4.89958L13.5308 5.25399C14.3647 5.36391 14.6986 6.39158 14.0885 6.97067L12.1218 8.83768C11.8763 9.07073 11.7653 9.41217 11.827 9.74502L12.3207 12.4115C12.4739 13.2386 11.5997 13.8737 10.8604 13.4725L8.47702 12.1789C8.1795 12.0174 7.8205 12.0174 7.52298 12.1789L5.13959 13.4725C4.40033 13.8737 3.52614 13.2386 3.67929 12.4115L4.17304 9.74502C4.23467 9.41217 4.12373 9.07073 3.87823 8.83768L1.91145 6.97067C1.30142 6.39158 1.63533 5.36391 2.46924 5.25399L5.15779 4.89958C5.4934 4.85534 5.78384 4.64433 5.92962 4.33882L7.09749 1.89137Z"/></g><defs><clipPath><rect width="16" height="16"/></clipPath></defs></symbol><symbol id="user" width="16" height="16" viewBox="0 0 16 16" fill="currentColor"><path d="M8 2C8.49445 2 8.9778 2.14662 9.38893 2.42133C9.80005 2.69603 10.1205 3.08648 10.3097 3.54329C10.4989 4.00011 10.5484 4.50277 10.452 4.98773C10.3555 5.47268 10.1174 5.91814 9.76777 6.26777C9.41814 6.6174 8.97268 6.8555 8.48773 6.95196C8.00278 7.04843 7.50011 6.99892 7.04329 6.8097C6.58648 6.62048 6.19603 6.30005 5.92133 5.88893C5.64662 5.4778 5.5 4.99445 5.5 4.5C5.5 3.83696 5.76339 3.20107 6.23223 2.73223C6.70108 2.26339 7.33696 2 8 2ZM8 1C7.30777 1 6.63108 1.20527 6.05551 1.58986C5.47993 1.97444 5.03133 2.52107 4.76642 3.16061C4.50152 3.80015 4.4322 4.50388 4.56725 5.18282C4.7023 5.86175 5.03564 6.48539 5.52513 6.97487C6.01461 7.46436 6.63825 7.7977 7.31719 7.93275C7.99612 8.0678 8.69985 7.99848 9.33939 7.73358C9.97893 7.46867 10.5256 7.02007 10.9101 6.4445C11.2947 5.86892 11.5 5.19223 11.5 4.5C11.5 3.57174 11.1313 2.6815 10.4749 2.02513C9.8185 1.36875 8.92826 1 8 1Z"/><path d="M13 15H12V12.5C12 12.1717 11.9353 11.8466 11.8097 11.5433C11.6841 11.24 11.4999 10.9644 11.2678 10.7322C11.0356 10.5001 10.76 10.3159 10.4567 10.1903C10.1534 10.0647 9.8283 10 9.5 10H6.5C5.83696 10 5.20107 10.2634 4.73223 10.7322C4.26339 11.2011 4 11.837 4 12.5V15H3V12.5C3 11.5717 3.36875 10.6815 4.02513 10.0251C4.6815 9.36875 5.57174 9 6.5 9H9.5C10.4283 9 11.3185 9.36875 11.9749 10.0251C12.6313 10.6815 13 11.5717 13 12.5V15Z"/></symbol><symbol id="view-grid-active" viewBox="0 0 24 24" fill="none"><rect x="3" y="3" width="18" height="6" rx="1" stroke="currentColor"/><rect x="3" y="15" width="18" height="6" rx="1" stroke="currentColor"/></symbol><symbol id="view-grid" viewBox="0 0 24 24" fill="none"><rect x="3" y="3" width="6" height="6" rx="1" fill="currentColor" stroke="currentColor"/><rect x="15" y="3" width="6" height="6" rx="1" fill="currentColor" stroke="currentColor"/><rect x="3" y="15" width="6" height="6" rx="1" fill="currentColor" stroke="currentColor"/><rect x="15" y="15" width="6" height="6" rx="1" fill="currentColor" stroke="currentColor"/></symbol><symbol id="view-list-active" width="16" height="16" viewBox="0 0 16 16" fill="currentColor"><rect x="2" y="2" width="12" height="4" rx="1"/><rect x="2" y="10" width="12" height="4" rx="1"/></symbol><symbol id="view-list" width="16" height="16" viewBox="0 0 16 16" fill="currentColor"><rect x="2" y="2" width="12" height="4" rx="1"/><rect x="2" y="10" width="12" height="4" rx="1"/></symbol><symbol id="warning" width="16" height="16" viewBox="0 0 16 16" fill="currentColor"><path d="M8 2C11.3138 2 14 4.6862 14 8C14 11.3138 11.3138 14 8 14C4.6862 14 2 11.3138 2 8C2 4.6862 4.6862 2 8 2ZM8 3.2C6.72696 3.2 5.50606 3.70571 4.60589 4.60589C3.70571 5.50606 3.2 6.72696 3.2 8C3.2 9.27304 3.70571 10.4939 4.60589 11.3941C5.50606 12.2943 6.72696 12.8 8 12.8C9.27304 12.8 10.4939 12.2943 11.3941 11.3941C12.2943 10.4939 12.8 9.27304 12.8 8C12.8 6.72696 12.2943 5.50606 11.3941 4.60589C10.4939 3.70571 9.27304 3.2 8 3.2ZM8 9.8C8.15913 9.8 8.31174 9.86321 8.42426 9.97574C8.53679 10.0883 8.6 10.2409 8.6 10.4C8.6 10.5591 8.53679 10.7117 8.42426 10.8243C8.31174 10.9368 8.15913 11 8 11C7.84087 11 7.68826 10.9368 7.57574 10.8243C7.46321 10.7117 7.4 10.5591 7.4 10.4C7.4 10.2409 7.46321 10.0883 7.57574 9.97574C7.68826 9.86321 7.84087 9.8 8 9.8ZM8 4.4C8.15913 4.4 8.31174 4.46321 8.42426 4.57574C8.53679 4.68826 8.6 4.84087 8.6 5V8.6C8.6 8.75913 8.53679 8.91174 8.42426 9.02426C8.31174 9.13679 8.15913 9.2 8 9.2C7.84087 9.2 7.68826 9.13679 7.57574 9.02426C7.46321 8.91174 7.4 8.75913 7.4 8.6V5C7.4 4.84087 7.46321 4.68826 7.57574 4.57574C7.68826 4.46321 7.84087 4.4 8 4.4Z"/></symbol><symbol id="zoom" width="16" height="16" viewBox="0 0 16 16" fill="currentColor"><path d="M9.74982 6.83334H7.99982V5.08334C7.99982 4.92863 7.93836 4.78026 7.82897 4.67086C7.71957 4.56146 7.5712 4.50001 7.41649 4.50001C7.26178 4.50001 7.11341 4.56146 7.00401 4.67086C6.89461 4.78026 6.83316 4.92863 6.83316 5.08334V6.83334H5.08316C4.92845 6.83334 4.78007 6.8948 4.67068 7.00419C4.56128 7.11359 4.49982 7.26196 4.49982 7.41667C4.49982 7.57138 4.56128 7.71976 4.67068 7.82915C4.78007 7.93855 4.92845 8.00001 5.08316 8.00001H6.83316V9.75001C6.83316 9.90472 6.89461 10.0531 7.00401 10.1625C7.11341 10.2719 7.26178 10.3333 7.41649 10.3333C7.5712 10.3333 7.71957 10.2719 7.82897 10.1625C7.93836 10.0531 7.99982 9.90472 7.99982 9.75001V8.00001H9.74982C9.90453 8.00001 10.0529 7.93855 10.1623 7.82915C10.2717 7.71976 10.3332 7.57138 10.3332 7.41667C10.3332 7.26196 10.2717 7.11359 10.1623 7.00419C10.0529 6.8948 9.90453 6.83334 9.74982 6.83334ZM13.664 12.8358L11.4998 10.6892C12.3399 9.64175 12.7467 8.31226 12.6366 6.9741C12.5266 5.63593 11.908 4.3908 10.908 3.49471C9.90812 2.59863 8.60288 2.11972 7.26069 2.15645C5.91851 2.19317 4.64141 2.74275 3.69199 3.69217C2.74257 4.64159 2.19299 5.91869 2.15626 7.26088C2.11954 8.60306 2.59845 9.9083 3.49453 10.9082C4.39061 11.9081 5.63575 12.5267 6.97391 12.6368C8.31208 12.7469 9.64156 12.3401 10.689 11.5L12.8357 13.6467C12.8899 13.7013 12.9544 13.7447 13.0255 13.7744C13.0966 13.804 13.1728 13.8192 13.2498 13.8192C13.3268 13.8192 13.4031 13.804 13.4742 13.7744C13.5452 13.7447 13.6098 13.7013 13.664 13.6467C13.7691 13.5379 13.8279 13.3925 13.8279 13.2413C13.8279 13.09 13.7691 12.9446 13.664 12.8358ZM7.41649 11.5C6.60888 11.5 5.81941 11.2605 5.14791 10.8118C4.47641 10.3632 3.95304 9.72543 3.64398 8.9793C3.33492 8.23317 3.25406 7.41214 3.41162 6.62005C3.56917 5.82796 3.95807 5.10038 4.52914 4.52932C5.1002 3.95826 5.82778 3.56936 6.61987 3.4118C7.41196 3.25424 8.23298 3.33511 8.97911 3.64416C9.72525 3.95322 10.363 4.47659 10.8117 5.14809C11.2603 5.81959 11.4998 6.60907 11.4998 7.41667C11.4998 8.49964 11.0696 9.53825 10.3038 10.304C9.53807 11.0698 8.49946 11.5 7.41649 11.5Z"/></symbol><symbol id="plus" viewBox="0 0 16 16" fill="currentColor">
  <path d="M8 1a.5.5 0 0 1 .5.5v6h6a.5.5 0 0 1 0 1h-6v6a.5.5 0 0 1-1 0v-6h-6a.5.5 0 0 1 0-1h6v-6A.5.5 0 0 1 8 1z"/>
</symbol><symbol id="chevron-down" width="16" height="16" viewBox="0 0 16 16" fill="currentColor"><path d="M2.99951 5L7.99967 10L12.9998 5" stroke-linecap="round" stroke-linejoin="round"/></symbol>
</svg>
