      <svg
          width="16"
          height="16"
          viewBox="0 0 16 16"
          fill="none"
          xmlns="http://www.w3.org/2000/svg"
        >
          <path
            d="M13.7141 3.30182C12.9713 2.55413 11.9865 2.09955 10.9387 2.02074C9.89102 1.94192 8.84997 2.24411 8.00494 2.87236C7.11474 2.20608 6.00672 1.90396 4.90401 2.02683C3.80131 2.1497 2.78582 2.68844 2.06205 3.53456C1.33828 4.38068 0.959991 5.47133 1.00336 6.58688C1.04672 7.70243 1.50852 8.76001 2.29576 9.54665L7.50818 14.7917C7.57323 14.8577 7.65061 14.9101 7.73587 14.9459C7.82113 14.9816 7.91257 15 8.00494 15C8.0973 15 8.18875 14.9816 8.27401 14.9459C8.35927 14.9101 8.43665 14.8577 8.50169 14.7917L13.7141 9.54665C14.1218 9.13671 14.4452 8.64995 14.6658 8.11419C14.8864 7.57843 15 7.00418 15 6.42424C15 5.8443 14.8864 5.27004 14.6658 4.73428C14.4452 4.19852 14.1218 3.71177 13.7141 3.30182Z"
            fill="#101750"
          />
        </svg>