<svg width="16" height="16" viewBox="0 0 16 16" fill="none" xmlns="http://www.w3.org/2000/svg">
<path d="M11.0558 1.88886C11.8655 1.89128 12.6413 2.214 13.2138 2.78655C13.7864 3.3591 14.1092 4.13495 14.1116 4.94464V11.0556C14.1092 11.8653 13.7864 12.6411 13.2138 13.2137C12.6413 13.7862 11.8655 14.1089 11.0558 14.1113H4.94488C4.13519 14.1089 3.35934 13.7862 2.78679 13.2137C2.21425 12.6411 1.89153 11.8653 1.88911 11.0556V4.94464C1.89153 4.13495 2.21425 3.3591 2.78679 2.78655C3.35934 2.214 4.13519 1.89128 4.94488 1.88886H11.0558ZM11.0558 0.666748H4.94488C2.59199 0.666748 0.666992 2.59175 0.666992 4.94464V11.0556C0.666992 13.4084 2.59199 15.3334 4.94488 15.3334H11.0558C13.4087 15.3334 15.3337 13.4084 15.3337 11.0556V4.94464C15.3337 2.59175 13.4087 0.666748 11.0558 0.666748Z" fill="white"/>
<path d="M11.9721 4.94489C11.7908 4.94489 11.6136 4.89112 11.4628 4.7904C11.3122 4.68967 11.1947 4.54651 11.1253 4.37901C11.0559 4.21151 11.0377 4.0272 11.0731 3.84938C11.1085 3.67156 11.1958 3.50823 11.324 3.38003C11.4522 3.25184 11.6155 3.16453 11.7933 3.12916C11.9712 3.09379 12.1555 3.11194 12.3229 3.18133C12.4904 3.2507 12.6336 3.36819 12.7344 3.51894C12.8351 3.66968 12.8888 3.84691 12.8888 4.02822C12.8891 4.14866 12.8656 4.26798 12.8195 4.37931C12.7736 4.49064 12.7061 4.5918 12.6209 4.67697C12.5358 4.76214 12.4346 4.82966 12.3232 4.87563C12.2119 4.92161 12.0926 4.94514 11.9721 4.94489ZM8.00004 5.55578C8.48354 5.55578 8.95618 5.69915 9.35816 5.96776C9.76015 6.23637 10.0735 6.61816 10.2585 7.06485C10.4436 7.51153 10.4919 8.00305 10.3976 8.47724C10.3033 8.95147 10.0705 9.387 9.72858 9.72893C9.38669 10.0708 8.95116 10.3036 8.47692 10.3979C8.00274 10.4923 7.51123 10.4438 7.06455 10.2589C6.61786 10.0738 6.23607 9.76045 5.96746 9.35849C5.69885 8.95645 5.55548 8.48382 5.55548 8.00034C5.55617 7.35221 5.81395 6.73083 6.27224 6.27254C6.73053 5.81424 7.35191 5.55647 8.00004 5.55578ZM8.00004 4.33366C7.27483 4.33366 6.56592 4.54871 5.96294 4.95161C5.35996 5.35451 4.89 5.92716 4.61247 6.59716C4.33495 7.26716 4.26234 8.00441 4.40382 8.7157C4.5453 9.42697 4.89452 10.0803 5.40731 10.593C5.9201 11.1058 6.57344 11.4551 7.28471 11.5966C7.99597 11.738 8.73325 11.6654 9.40319 11.3879C10.0732 11.1104 10.6459 10.6404 11.0488 10.0375C11.4517 9.43447 11.6667 8.72557 11.6667 8.00034C11.6667 7.02788 11.2804 6.09524 10.5928 5.4076C9.90512 4.71997 8.97253 4.33366 8.00004 4.33366Z" fill="white"/>
</svg>

