<svg width="24" height="24" viewBox="0 0 24 24" fill="none" xmlns="http://www.w3.org/2000/svg">
<path d="M21.7192 20.3139L18.0114 16.6333C19.4506 14.8374 20.1476 12.5579 19.959 10.2636C19.7705 7.96919 18.7106 5.83432 16.9975 4.29792C15.2844 2.76153 13.0481 1.9404 10.7486 2.00337C8.44911 2.06634 6.26109 3.00863 4.63448 4.63648C3.00786 6.26433 2.06629 8.454 2.00337 10.7553C1.94045 13.0565 2.76095 15.2945 4.29618 17.0089C5.83141 18.7233 7.96466 19.784 10.2573 19.9727C12.5499 20.1614 14.8277 19.4639 16.6222 18.0235L20.3 21.7042C20.3929 21.7979 20.5035 21.8723 20.6253 21.9231C20.747 21.9739 20.8777 22 21.0096 22C21.1415 22 21.2722 21.9739 21.3939 21.9231C21.5157 21.8723 21.6263 21.7979 21.7192 21.7042C21.8993 21.5177 22 21.2684 22 21.009C22 20.7497 21.8993 20.5004 21.7192 20.3139ZM11.0155 18.0235C9.63189 18.0235 8.27932 17.6129 7.12886 16.8436C5.9784 16.0743 5.08172 14.9809 4.55223 13.7016C4.02273 12.4223 3.88419 11.0146 4.15412 9.65653C4.42406 8.29844 5.09035 7.05095 6.06873 6.07183C7.04712 5.0927 8.29366 4.4259 9.65072 4.15576C11.0078 3.88562 12.4144 4.02426 13.6927 4.55417C14.9711 5.08407 16.0637 5.98142 16.8324 7.13276C17.6011 8.28409 18.0114 9.63769 18.0114 11.0224C18.0114 12.8792 17.2743 14.66 15.9623 15.973C14.6504 17.2859 12.871 18.0235 11.0155 18.0235Z" fill="white"/>
</svg>
