<svg width="16" height="16" viewBox="0 0 16 16" fill="none" xmlns="http://www.w3.org/2000/svg">
<path d="M15.3337 3.42188C14.7835 3.66636 14.2014 3.82744 13.6057 3.9C14.2317 3.52512 14.7025 2.92956 14.9297 2.22501C14.3379 2.57894 13.6914 2.82728 13.0181 2.95938C12.7346 2.65548 12.3936 2.41372 12.0159 2.2488C11.6382 2.08388 11.2316 1.99923 10.8209 2.00001C9.15803 2.00001 7.81241 3.35625 7.81241 5.02813C7.81121 5.26068 7.83726 5.49254 7.89001 5.71876C6.69764 5.66159 5.53006 5.3505 4.46198 4.8054C3.3939 4.26029 2.44883 3.49318 1.68724 2.55313C1.42005 3.01379 1.27875 3.5394 1.2781 4.07501C1.2781 5.125 1.81374 6.05313 2.62255 6.59688C2.14335 6.58525 1.67398 6.45553 1.25427 6.21875V6.25625C1.25427 7.725 2.29316 8.94688 3.66816 9.225C3.40959 9.29548 3.14314 9.3312 2.87555 9.33128C2.68567 9.33157 2.49622 9.31276 2.30996 9.27501C2.69221 10.4781 3.80474 11.3531 5.1226 11.3781C4.05174 12.2221 2.73701 12.6784 1.38505 12.675C1.14507 12.6747 0.905315 12.66 0.666992 12.6312C2.04235 13.5294 3.64109 14.0045 5.27293 14C10.8145 14 13.8419 9.38435 13.8419 5.38125C13.8419 5.25001 13.8385 5.11875 13.8324 4.99063C14.4201 4.56315 14.9284 4.03192 15.3337 3.42188Z" fill="white"/>
</svg>
