<svg width="16" height="16" viewBox="0 0 16 16" fill="none" xmlns="http://www.w3.org/2000/svg">
<path d="M8 2C11.3138 2 14 4.6862 14 8C14 11.3138 11.3138 14 8 14C4.6862 14 2 11.3138 2 8C2 4.6862 4.6862 2 8 2ZM8 3.2C6.72696 3.2 5.50606 3.70571 4.60589 4.60589C3.70571 5.50606 3.2 6.72696 3.2 8C3.2 9.27304 3.70571 10.4939 4.60589 11.3941C5.50606 12.2943 6.72696 12.8 8 12.8C9.27304 12.8 10.4939 12.2943 11.3941 11.3941C12.2943 10.4939 12.8 9.27304 12.8 8C12.8 6.72696 12.2943 5.50606 11.3941 4.60589C10.4939 3.70571 9.27304 3.2 8 3.2ZM8 9.8C8.15913 9.8 8.31174 9.86321 8.42426 9.97574C8.53679 10.0883 8.6 10.2409 8.6 10.4C8.6 10.5591 8.53679 10.7117 8.42426 10.8243C8.31174 10.9368 8.15913 11 8 11C7.84087 11 7.68826 10.9368 7.57574 10.8243C7.46321 10.7117 7.4 10.5591 7.4 10.4C7.4 10.2409 7.46321 10.0883 7.57574 9.97574C7.68826 9.86321 7.84087 9.8 8 9.8ZM8 4.4C8.15913 4.4 8.31174 4.46321 8.42426 4.57574C8.53679 4.68826 8.6 4.84087 8.6 5V8.6C8.6 8.75913 8.53679 8.91174 8.42426 9.02426C8.31174 9.13679 8.15913 9.2 8 9.2C7.84087 9.2 7.68826 9.13679 7.57574 9.02426C7.46321 8.91174 7.4 8.75913 7.4 8.6V5C7.4 4.84087 7.46321 4.68826 7.57574 4.57574C7.68826 4.46321 7.84087 4.4 8 4.4Z" fill="#101750"/>
</svg>
