<svg width="16" height="16" viewBox="0 0 16 16" fill="none" xmlns="http://www.w3.org/2000/svg">
<path d="M9.74982 6.83334H7.99982V5.08334C7.99982 4.92863 7.93836 4.78026 7.82897 4.67086C7.71957 4.56146 7.5712 4.50001 7.41649 4.50001C7.26178 4.50001 7.11341 4.56146 7.00401 4.67086C6.89461 4.78026 6.83316 4.92863 6.83316 5.08334V6.83334H5.08316C4.92845 6.83334 4.78007 6.8948 4.67068 7.00419C4.56128 7.11359 4.49982 7.26196 4.49982 7.41667C4.49982 7.57138 4.56128 7.71976 4.67068 7.82915C4.78007 7.93855 4.92845 8.00001 5.08316 8.00001H6.83316V9.75001C6.83316 9.90472 6.89461 10.0531 7.00401 10.1625C7.11341 10.2719 7.26178 10.3333 7.41649 10.3333C7.5712 10.3333 7.71957 10.2719 7.82897 10.1625C7.93836 10.0531 7.99982 9.90472 7.99982 9.75001V8.00001H9.74982C9.90453 8.00001 10.0529 7.93855 10.1623 7.82915C10.2717 7.71976 10.3332 7.57138 10.3332 7.41667C10.3332 7.26196 10.2717 7.11359 10.1623 7.00419C10.0529 6.8948 9.90453 6.83334 9.74982 6.83334ZM13.664 12.8358L11.4998 10.6892C12.3399 9.64175 12.7467 8.31226 12.6366 6.9741C12.5266 5.63593 11.908 4.3908 10.908 3.49471C9.90812 2.59863 8.60288 2.11972 7.26069 2.15645C5.91851 2.19317 4.64141 2.74275 3.69199 3.69217C2.74257 4.64159 2.19299 5.91869 2.15626 7.26088C2.11954 8.60306 2.59845 9.9083 3.49453 10.9082C4.39061 11.9081 5.63575 12.5267 6.97391 12.6368C8.31208 12.7469 9.64156 12.3401 10.689 11.5L12.8357 13.6467C12.8899 13.7013 12.9544 13.7447 13.0255 13.7744C13.0966 13.804 13.1728 13.8192 13.2498 13.8192C13.3268 13.8192 13.4031 13.804 13.4742 13.7744C13.5452 13.7447 13.6098 13.7013 13.664 13.6467C13.7691 13.5379 13.8279 13.3925 13.8279 13.2413C13.8279 13.09 13.7691 12.9446 13.664 12.8358ZM7.41649 11.5C6.60888 11.5 5.81941 11.2605 5.14791 10.8118C4.47641 10.3632 3.95304 9.72543 3.64398 8.9793C3.33492 8.23317 3.25406 7.41214 3.41162 6.62005C3.56917 5.82796 3.95807 5.10038 4.52914 4.52932C5.1002 3.95826 5.82778 3.56936 6.61987 3.4118C7.41196 3.25424 8.23298 3.33511 8.97911 3.64416C9.72525 3.95322 10.363 4.47659 10.8117 5.14809C11.2603 5.81959 11.4998 6.60907 11.4998 7.41667C11.4998 8.49964 11.0696 9.53825 10.3038 10.304C9.53807 11.0698 8.49946 11.5 7.41649 11.5Z" fill="#101750"/>
</svg>
